<svg version="1.2" xmlns="http://www.w3.org/2000/svg" viewBox="0 0 1274 1280" width="1274" height="1280"><defs><linearGradient id="P" gradientUnits="userSpaceOnUse"/><radialGradient id="g1" cx="0" cy="0" r="1" href="#P" gradientTransform="matrix(637,0,0,637,637,640)"><stop stop-color="#f00"/><stop offset=".15" stop-color="#f0f"/><stop offset=".33" stop-color="#00f"/><stop offset=".49" stop-color="#0ff"/><stop offset=".67" stop-color="#0f0"/><stop offset=".84" stop-color="#ff0"/><stop offset="1" stop-color="#f00"/></radialGradient></defs><style>.a{fill:url(#g1)}.b{fill:#fff;stroke:#000;stroke-miterlimit:100;stroke-width:10}</style><path fill-rule="evenodd" class="a" d="m1274 0v1280h-1274v-1280z"/><path class="b" d="m755 1.5c-23.1 6.6-36.1 30.6-29 53.7 3.7 12.2 13.3 22.5 25 26.9 4.1 1.6 9.4 2.3 21 3 21.3 1.3 41.3 3.5 58.1 6.5 124.1 21.7 232.2 96.3 297.7 205.2 36 59.9 57.5 131.6 60.8 202.2 0.3 7.4 1.2 16.2 2 19.5 3 12 11 21.5 23.4 27.4 7.1 3.4 8.1 3.6 17.5 3.6 9.3 0 10.5-0.3 17.2-3.4 12.1-5.7 21.2-16.9 24.3-30 1.5-6.2 0.8-25.6-1.6-48.5-11.2-108.2-53.2-205.9-123.7-287.9-16.9-19.7-46.9-48.6-67.7-65.3-78.9-63.2-173.8-102-273.8-111.9-24.6-2.4-44.7-2.8-51.2-1z"/><path class="b" d="m712.3 157.1c-10.6 2-21.2 9.1-27.1 17.9-12.8 19-8 45.4 10.5 58.2 8.2 5.6 13.3 6.9 32.8 8.4 48.4 3.8 89.5 15.2 129.3 35.9 29.7 15.5 52.2 31.8 76.6 55.5 59.1 57.5 93.1 132.1 98.2 216 0.8 13.9 3.1 21.8 8.4 29.2 15.3 21.5 46.6 23.6 64.8 4.5 10.3-10.9 12.7-20.1 11.2-42.4-6.9-101.9-48.3-193.6-119.6-264.6-70.8-70.6-161.3-111.5-262.9-118.7-15.7-1.1-16.4-1.1-22.2 0.1z"/><path class="b" d="m226.8 167.1c-20.9 2.6-41.4 10.9-63.3 25.7-58.5 39.5-105.7 107.4-137.1 196.9-7.5 21.5-17 55.1-20.9 73.8-14.3 69.6-0.4 152.5 41.1 245.2 40.7 91.1 114.5 200.8 197.7 293.9 29.8 33.4 102.9 94 167.5 138.9 70.2 48.8 138.5 85.7 201.7 109 14.6 5.4 21.2 7.5 41 13.6 6.8 2 27.9 6.9 40 9.3 24.3 4.6 39.2 6 66 6 30.8 0.1 43.2-1.5 74.4-9.3 78-19.7 141.8-49.4 192.6-89.8 13.6-10.8 36.7-33.7 46.7-46.3 15.8-19.9 28.9-42.5 33.7-58.5 5-16.2 7-39.4 5.2-59-6.1-64-40.4-117.4-99.1-154-23.9-14.9-68.3-35.2-95.8-43.9-44.9-14.1-86.9-15.5-121.1-4-28.3 9.4-49.4 26.1-70.3 55.4-19.2 27.1-36.1 43.1-56 53.1-13.2 6.7-21.1 8.4-37.3 8.3-12.2-0.1-15.2-0.4-23-2.8-12.5-3.8-28-11.4-41-20.1-52.2-35-175.3-160.1-202.9-206.2-6.4-10.7-12.4-24.5-15.3-34.9-3.4-12.5-3.8-30.9-0.9-41.4 7.3-26.7 28.3-51.9 63.5-76 47.8-32.7 67.8-86.7 56.5-152.4-5.9-34.5-21.6-76.3-43.8-116.6-24.9-45.3-56.1-76.6-95.1-95.5-17.9-8.6-32.6-13.4-52.5-17.1-10.3-1.8-41.5-2.7-52.2-1.3zm47 69.3c36.4 7.9 66.2 31 88.4 68.5 19.6 33.2 36.3 75 41.4 103.6 2.5 14.4 2.3 35.4-0.5 46-4.6 17.7-13.8 30.3-30.2 41.5-71.3 48.8-103 112.6-89.4 179.6 4.4 21.7 16.1 48.4 30.7 70.4 31.7 47.7 129.4 149.1 194.3 201.6 33.6 27.1 64.9 43 97.7 49.6 15.7 3.1 41.6 3.1 56.5-0.1 45.5-9.6 86.9-40.2 120.2-88.9 11.4-16.6 23.9-26.1 40.6-30.8 9.1-2.5 32.8-3 45.2-1 27.8 4.7 60.9 16.9 93.7 34.8 22.7 12.3 34.9 21.2 48.7 35.5 21.2 22 32.1 46.5 34.4 77.8 0.8 10.9-0.9 27.9-3.5 34.5-8.3 21-35.4 52.4-63.3 73.4-42.1 31.6-93.8 54.8-159.3 71.6-27.3 7-38.7 8.3-66.9 7.7-23.5-0.6-32.4-1.6-54.7-6.3-92.9-19.4-208.5-83.4-331.2-183.3-42.6-34.7-62.1-53-86.4-81.3-107.7-125.7-181.2-253.3-204.2-354.7-5.8-25.7-7.3-39.3-7.4-65.6-0.1-26.3 0.5-31.4 6-54.5 23.2-97.1 67.1-174.7 120.9-213.6 12.3-8.8 27.2-16.1 35.5-17.3 9.1-1.4 34.1-0.6 42.8 1.3z"/><path class="b" d="m655.8 318.9c-12.1 3.1-21.8 11.5-27.5 23.7-2.6 5.4-2.8 6.9-2.8 17.4 0 10.6 0.2 12 2.8 17.2 4.3 8.8 11.6 16.2 20.2 20.4 6.7 3.3 8.5 3.7 22.6 5 29.6 2.8 53.7 9.3 77.4 20.8 23.6 11.4 38.9 22.1 57.4 40.1 18.5 18 31 34.8 42 56.5 14.1 27.8 19.6 48.2 24 89 1.9 17.2 10.2 29.4 24.8 36.3 11.9 5.5 27.5 4.8 38.9-1.9 5.9-3.5 14.1-12.5 17-18.8 3.9-8.5 4.6-14.8 3.4-29.3-8.4-100.8-64.3-188.7-152.1-239.1-36.4-21-79.3-34.3-122.9-38.2-14.9-1.3-17.2-1.2-25.2 0.9z"/><path class="b" d=""/></svg>